<svg xmlns="http://www.w3.org/2000/svg" viewBox="0 0 1024 1024">
  <!-- Background circle -->
  <circle cx="512" cy="512" r="460" fill="#007AFF"/>
  
  <!-- Microphone in white, adjusted position -->
  <g transform="translate(52, 12) scale(1.2)" fill="#FFFFFF">
    <path d="M384,192 C437,192 480,235 480,288 L480,448 C480,501 437,544 384,544 C331,544 288,501 288,448 L288,288 C288,235 331,192 384,192 Z"/>
    <path d="M384,576 C458,576 520,514 520,448 L520,416 L560,416 L560,448 C560,528 499,594 420,605 L420,672 L480,672 L480,704 L288,704 L288,672 L348,672 L348,605 C269,594 208,528 208,448 L208,416 L248,416 L248,448 C248,514 310,576 384,576 Z"/>
  </g>
</svg>
